<svg id="Layer_1" data-name="Layer 1" xmlns="http://www.w3.org/2000/svg" viewBox="0 0 617.17 159.23"><title>z</title><path d="M30.23,338.73h96.5v17.75L62.35,480.2h64.38V498H30.23V480.2L94.61,356.47H30.23Z" transform="translate(-30.23 -338.73)"/><path d="M255.46,338.73h32.12v123.9a35.86,35.86,0,0,1-9.46,24.84Q268.65,498,255.46,498H223.19q-13.19,0-22.65-10.41a35.77,35.77,0,0,1-9.46-24.92V338.73h32.12v123.9A17.84,17.84,0,0,0,227.91,475a15.1,15.1,0,0,0,22.84,0,17.84,17.84,0,0,0,4.71-12.36Z" transform="translate(-30.23 -338.73)"/><path d="M351.92,498V338.73H384v65l52-65h28.5l-64.38,79.61L464.56,498H432.29L384,436.09V498Z" transform="translate(-30.23 -338.73)"/><path d="M561,338.73h32.27q13.19,0,22.65,10.45a35.82,35.82,0,0,1,9.46,24.88v88.57a35.86,35.86,0,0,1-9.46,24.84Q606.48,498,593.29,498H561q-13.19,0-22.66-10.41a35.77,35.77,0,0,1-9.46-24.92V374.05a35.77,35.77,0,0,1,9.46-24.92Q547.83,338.73,561,338.73Zm0,35.33v88.57A17.84,17.84,0,0,0,565.73,475a15.1,15.1,0,0,0,22.84,0,17.84,17.84,0,0,0,4.71-12.36V374.05a17.64,17.64,0,0,0-4.79-12.4,15.05,15.05,0,0,0-22.73,0A17.72,17.72,0,0,0,561,374.05Z" transform="translate(-30.23 -338.73)"/><path d="M52.23,338.73h96.5v17.75L84.35,480.2h64.38V498H52.23V480.2l64.38-123.73H52.23Z" transform="translate(-30.23 -338.73)"/><path d="M277.46,338.73h32.12v123.9a35.86,35.86,0,0,1-9.46,24.84Q290.65,498,277.46,498H245.19q-13.19,0-22.65-10.41a35.77,35.77,0,0,1-9.46-24.92V338.73h32.12v123.9A17.84,17.84,0,0,0,249.91,475a15.1,15.1,0,0,0,22.84,0,17.84,17.84,0,0,0,4.71-12.36Z" transform="translate(-30.23 -338.73)"/><path d="M373.92,498V338.73H406v65l52-65h28.5l-64.38,79.61L486.56,498H454.29L406,436.09V498Z" transform="translate(-30.23 -338.73)"/><path d="M583,338.73h32.27q13.19,0,22.65,10.45a35.82,35.82,0,0,1,9.46,24.88v88.57a35.86,35.86,0,0,1-9.46,24.84Q628.48,498,615.29,498H583q-13.19,0-22.66-10.41a35.77,35.77,0,0,1-9.46-24.92V374.05a35.77,35.77,0,0,1,9.46-24.92Q569.83,338.73,583,338.73Zm0,35.33v88.57A17.84,17.84,0,0,0,587.73,475a15.1,15.1,0,0,0,22.84,0,17.84,17.84,0,0,0,4.71-12.36V374.05a17.64,17.64,0,0,0-4.79-12.4,15.05,15.05,0,0,0-22.73,0A17.72,17.72,0,0,0,583,374.05Z" transform="translate(-30.23 -338.73)"/></svg>